<?xml version="1.0" standalone="no"?>
<!DOCTYPE svg PUBLIC "-//W3C//DTD SVG 20010904//EN"
 "http://www.w3.org/TR/2001/REC-SVG-20010904/DTD/svg10.dtd">
<svg version="1.0" xmlns="http://www.w3.org/2000/svg"
 width="210.000000pt" height="210.000000pt" viewBox="0 0 210.000000 210.000000"
 preserveAspectRatio="xMidYMid meet">
<metadata>
Created by potrace 1.11, written by Peter Selinger 2001-2013
</metadata>
<g transform="translate(0.000000,210.000000) scale(0.100000,-0.100000)"
fill="#000000" stroke="none">
<path d="M925 1956 c-142 -21 -184 -41 -295 -137 -106 -92 -125 -116 -172
-211 -26 -53 -63 -118 -83 -143 -32 -42 -35 -53 -35 -111 0 -45 -6 -75 -20
-101 -11 -21 -20 -45 -20 -55 0 -10 -8 -34 -17 -54 -14 -28 -15 -38 -5 -41 17
-6 15 -52 -3 -59 -9 -4 -21 -16 -27 -27 -9 -18 -6 -24 18 -45 19 -17 28 -33
26 -48 -2 -13 5 -28 16 -36 16 -11 34 -52 37 -83 0 -5 4 -16 9 -23 4 -7 6 -32
4 -55 -2 -36 0 -42 17 -45 20 -3 45 -43 45 -73 0 -9 23 -37 50 -62 28 -25 50
-51 50 -57 0 -6 12 -9 28 -8 l27 3 0 -95 0 -95 -30 -3 c-45 -5 -54 -17 -48
-64 5 -31 2 -43 -11 -50 -9 -5 -54 -38 -101 -74 -47 -36 -103 -73 -123 -82
l-37 -17 39 -3 c51 -4 69 4 63 28 -3 13 1 21 14 25 26 9 39 -2 39 -31 0 -22 4
-24 45 -24 26 0 45 5 45 11 0 14 41 72 46 66 3 -2 0 -17 -6 -32 -8 -22 -8 -30
2 -37 7 -4 73 -8 146 -8 l133 0 -27 47 c-14 26 -60 81 -101 123 l-75 75 6 74
c3 41 6 131 7 200 1 119 1 124 13 81 7 -25 29 -77 48 -115 51 -101 240 -335
270 -335 11 0 62 -81 64 -102 2 -32 14 -48 33 -48 19 0 19 1 0 40 -24 50 -24
62 1 30 15 -18 18 -20 13 -6 -4 14 -3 17 6 12 7 -5 10 -14 7 -22 -3 -8 0 -24
7 -34 11 -19 25 -20 334 -20 178 0 323 4 323 8 0 4 -15 16 -32 27 -89 51 -268
231 -268 267 0 18 -28 -12 -56 -60 -15 -26 -36 -57 -47 -69 -26 -29 -75 -40
-90 -20 -10 13 -22 13 -75 5 -79 -14 -121 3 -208 82 -33 30 -86 77 -117 104
-32 27 -83 85 -115 130 -51 72 -57 86 -55 128 1 34 8 56 27 81 24 32 27 42 24
109 -2 62 0 76 17 94 11 11 26 29 33 40 7 10 9 12 5 4 -6 -13 -4 -13 10 -2 14
12 16 8 19 -50 3 -69 1 -72 23 37 8 38 30 58 51 48 10 -6 35 -15 54 -21 l35
-11 -22 18 c-13 11 -23 24 -23 30 0 19 31 12 49 -11 14 -16 24 -19 44 -14 15
3 27 13 27 22 0 8 5 12 11 9 7 -5 5 -15 -5 -30 -14 -21 -14 -23 4 -18 21 5 28
-11 10 -22 -5 -3 -10 -10 -10 -16 0 -15 35 -10 56 9 10 9 42 34 71 55 46 34
53 44 73 109 19 62 30 79 91 142 60 60 72 69 80 54 6 -11 5 -26 -2 -45 -33
-79 -53 -120 -67 -136 -8 -9 -13 -19 -11 -21 2 -3 40 44 84 102 54 73 81 101
83 90 2 -10 -6 -31 -17 -47 -12 -16 -21 -33 -21 -38 0 -6 -9 -18 -20 -28 -23
-21 -28 -44 -5 -25 11 9 15 9 15 1 0 -6 -7 -14 -15 -17 -8 -4 -13 -10 -10 -14
3 -5 -19 -17 -50 -26 -63 -20 -95 -45 -95 -75 0 -12 9 -53 19 -92 20 -73 41
-218 34 -227 -2 -2 -8 2 -12 9 -7 11 -12 8 -21 -10 -19 -35 -24 -36 -106 -31
-48 3 -74 1 -74 -6 0 -6 15 -14 33 -17 40 -9 57 -22 51 -40 -6 -16 12 -55 26
-55 6 0 10 9 10 20 0 30 35 25 59 -9 l20 -28 -50 -6 c-28 -4 -63 -4 -79 -1
-15 4 -54 -1 -85 -11 -32 -9 -69 -14 -82 -10 -26 6 -53 -9 -53 -30 0 -8 21
-11 78 -8 42 2 117 1 166 -4 85 -8 89 -9 72 -26 -14 -14 -35 -17 -112 -17
-122 0 -126 -19 -11 -54 40 -12 71 -15 102 -10 44 6 46 5 56 -25 13 -38 26
-39 42 -4 7 16 21 42 31 58 76 118 93 141 103 138 14 -5 26 13 48 67 29 75 29
76 -3 40 -35 -39 -39 -32 -17 30 8 23 15 56 15 73 0 30 0 30 -17 9 -10 -11
-26 -35 -36 -52 -9 -17 -22 -30 -28 -28 -7 2 -29 37 -51 77 -28 51 -36 76 -29
85 7 8 5 27 -7 60 l-17 48 28 24 c16 13 25 29 21 35 -3 6 5 3 20 -6 21 -14 29
-15 41 -5 8 7 12 16 9 21 -3 5 2 9 10 9 21 0 20 -7 -4 -37 -11 -14 -20 -29
-20 -34 0 -4 9 -11 20 -14 12 -4 20 -15 20 -28 0 -17 7 -22 28 -24 29 -2 37 8
70 87 10 23 11 20 11 -22 1 -27 5 -48 10 -48 5 0 13 -10 17 -22 3 -13 13 -31
22 -41 14 -16 16 -16 29 12 12 25 12 33 -1 66 -9 21 -16 51 -16 68 0 29 0 30
20 12 16 -14 22 -15 35 -5 10 8 12 17 6 28 -5 9 -5 29 0 46 5 17 9 45 9 63 0
41 9 63 25 63 25 0 24 31 -2 71 -23 36 -27 54 -34 157 -7 119 -33 211 -81 285
-10 14 -18 29 -18 33 0 15 -79 92 -139 137 -81 58 -177 105 -239 116 -91 17
-236 20 -327 7z m315 -712 c0 -3 -23 -30 -52 -60 -51 -54 -44 -62 17 -21 l30
20 -30 -33 c-25 -28 -27 -31 -7 -21 l22 12 -22 -45 c-26 -53 -38 -60 -75 -41
-15 8 -34 15 -40 15 -7 0 -13 5 -13 11 0 5 -4 8 -9 4 -5 -3 -39 0 -76 7 -83
16 -83 32 5 76 36 18 76 40 90 49 13 9 38 19 55 23 37 8 105 11 105 4z m-200
-19 c-14 -8 -20 -15 -15 -15 15 -1 -18 -20 -34 -20 -19 0 5 29 34 40 33 14 42
10 15 -5z m530 -78 c0 -31 -3 -33 -35 -35 -19 -2 -35 0 -35 3 0 9 53 65 62 65
4 0 8 -15 8 -33z m-1035 -247 c-3 -5 -14 -10 -23 -10 -15 0 -15 2 -2 10 20 13
33 13 25 0z m-70 -30 c3 -5 2 -10 -4 -10 -5 0 -13 5 -16 10 -3 6 -2 10 4 10 5
0 13 -4 16 -10z m89 -29 c12 -13 15 -27 10 -45 -3 -15 -2 -26 2 -25 27 5 35
-2 29 -23 -17 -55 -42 -46 -96 33 l-40 59 23 10 c35 14 53 12 72 -9z"/>
</g>
</svg>
